<?xml version="1.0" encoding="utf-8"?>
<!-- Generator: Adobe Illustrator 16.0.3, SVG Export Plug-In . SVG Version: 6.00 Build 0)  -->
<!DOCTYPE svg PUBLIC "-//W3C//DTD SVG 1.1//EN" "http://www.w3.org/Graphics/SVG/1.1/DTD/svg11.dtd">
<svg version="1.1" id="Layer_1" xmlns="http://www.w3.org/2000/svg" xmlns:xlink="http://www.w3.org/1999/xlink" x="0px" y="0px"
	 width="792px" height="612px" viewBox="0 0 792 612" enable-background="new 0 0 792 612" xml:space="preserve">
<g>
	<defs>
		<rect id="SVGID_1_" width="792" height="612"/>
	</defs>
	<clipPath id="SVGID_2_">
		<use xlink:href="#SVGID_1_"  overflow="visible"/>
	</clipPath>
	<rect clip-path="url(#SVGID_2_)" fill="#FFFFFF" width="792" height="612"/>
	
		<rect clip-path="url(#SVGID_2_)" fill="none" stroke="#FFFFFF" stroke-width="1.06" stroke-linecap="round" stroke-linejoin="round" stroke-miterlimit="10" width="792" height="612"/>
</g>
<g>
	<defs>
		<rect id="SVGID_3_" x="44" y="14.4" width="733.6" height="560.32"/>
	</defs>
	<clipPath id="SVGID_4_">
		<use xlink:href="#SVGID_3_"  overflow="visible"/>
	</clipPath>
	
		<polyline clip-path="url(#SVGID_4_)" fill="none" stroke="#FF5500" stroke-width="2.13" stroke-linejoin="round" stroke-miterlimit="1" points="
		77.35,39.87 84.08,54.17 90.82,68.28 97.56,82.17 104.29,95.87 111.03,109.36 117.77,122.64 124.5,135.73 131.24,148.6 
		137.98,161.28 144.71,173.75 151.45,186.02 158.19,198.08 164.92,209.94 171.66,221.6 178.39,233.05 185.13,244.3 191.87,255.35 
		198.6,266.19 205.34,276.83 212.08,287.26 218.81,297.49 225.55,307.52 232.29,317.34 239.02,326.96 245.76,336.38 252.5,345.59 
		259.23,354.59 265.97,363.4 272.7,372 279.44,380.4 286.18,388.59 292.91,396.58 299.65,404.36 306.39,411.95 313.12,419.32 
		319.86,426.5 326.6,433.47 333.33,440.24 340.07,446.8 346.81,453.16 353.54,459.31 360.28,465.27 367.01,471.01 373.75,476.56 
		380.49,481.9 387.22,487.04 393.96,491.97 400.7,496.7 407.43,501.23 414.17,505.55 420.91,509.67 427.64,513.58 434.38,517.29 
		441.12,520.8 447.85,524.1 454.59,527.2 461.32,530.1 468.06,532.79 474.8,535.28 481.53,537.56 488.27,539.64 495.01,541.52 
		501.74,543.19 508.48,544.66 515.22,545.93 521.95,546.99 528.69,547.85 535.43,548.51 542.16,548.96 548.9,549.2 555.63,549.25 
		562.37,549.09 569.11,548.72 575.84,548.16 582.58,547.39 589.32,546.41 596.05,545.23 602.79,543.85 609.53,542.26 616.26,540.47 
		623,538.48 629.74,536.28 636.47,533.88 643.21,531.28 649.94,528.47 656.68,525.46 663.42,522.24 670.15,518.82 676.89,515.2 
		683.63,511.37 690.36,507.34 697.1,503.1 703.84,498.66 710.57,494.02 717.31,489.18 724.05,484.13 730.78,478.87 737.52,473.42 
		744.25,467.75 	"/>
</g>
<text transform="matrix(1 0 0 1 23.02 552.8398)" fill="#7F7F7F" font-family="'ArialMT'" font-size="10">0.0</text>
<text transform="matrix(1 0 0 1 23.02 417)" fill="#7F7F7F" font-family="'ArialMT'" font-size="10">0.2</text>
<text transform="matrix(1 0 0 1 23.02 281.1699)" fill="#7F7F7F" font-family="'ArialMT'" font-size="10">0.4</text>
<text transform="matrix(1 0 0 1 23.02 145.3301)" fill="#7F7F7F" font-family="'ArialMT'" font-size="10">0.6</text>
<line fill="none" stroke="#7F7F7F" stroke-width="1.06" stroke-linejoin="round" stroke-miterlimit="10" x1="39.75" y1="549.25" x2="44" y2="549.25"/>
<line fill="none" stroke="#7F7F7F" stroke-width="1.06" stroke-linejoin="round" stroke-miterlimit="10" x1="39.75" y1="413.41" x2="44" y2="413.41"/>
<line fill="none" stroke="#7F7F7F" stroke-width="1.06" stroke-linejoin="round" stroke-miterlimit="10" x1="39.75" y1="277.58" x2="44" y2="277.58"/>
<line fill="none" stroke="#7F7F7F" stroke-width="1.06" stroke-linejoin="round" stroke-miterlimit="10" x1="39.75" y1="141.74" x2="44" y2="141.74"/>
<line fill="none" stroke="#7F7F7F" stroke-width="1.06" stroke-linejoin="round" stroke-miterlimit="10" x1="70.61" y1="578.97" x2="70.61" y2="574.72"/>
<line fill="none" stroke="#7F7F7F" stroke-width="1.06" stroke-linejoin="round" stroke-miterlimit="10" x1="239.02" y1="578.97" x2="239.02" y2="574.72"/>
<line fill="none" stroke="#7F7F7F" stroke-width="1.06" stroke-linejoin="round" stroke-miterlimit="10" x1="407.43" y1="578.97" x2="407.43" y2="574.72"/>
<line fill="none" stroke="#7F7F7F" stroke-width="1.06" stroke-linejoin="round" stroke-miterlimit="10" x1="575.84" y1="578.97" x2="575.84" y2="574.72"/>
<line fill="none" stroke="#7F7F7F" stroke-width="1.06" stroke-linejoin="round" stroke-miterlimit="10" x1="744.25" y1="578.97" x2="744.25" y2="574.72"/>
<text transform="matrix(1 0 0 1 67.8301 588.9805)" fill="#7F7F7F" font-family="'ArialMT'" font-size="10">0</text>
<text transform="matrix(1 0 0 1 233.46 588.9805)" fill="#7F7F7F" font-family="'ArialMT'" font-size="10">25</text>
<text transform="matrix(1 0 0 1 401.8701 588.9805)" fill="#7F7F7F" font-family="'ArialMT'" font-size="10">50</text>
<text transform="matrix(1 0 0 1 570.2803 588.9805)" fill="#7F7F7F" font-family="'ArialMT'" font-size="10">75</text>
<text transform="matrix(1 0 0 1 735.9102 588.9805)" fill="#7F7F7F" font-family="'ArialMT'" font-size="10">100</text>
<text transform="matrix(1 0 0 1 333.9302 601.2002)"><tspan x="0" y="0" font-family="'ArialMT'" font-size="12">Model Compl</tspan><tspan x="70.693" y="0" font-family="'ArialMT'" font-size="12">e</tspan><tspan x="77.007" y="0" font-family="'ArialMT'" font-size="12">xity </tspan><tspan x="98.341" y="0" font-family="'ArialMT'" font-size="12">P</tspan><tspan x="105.865" y="0" font-family="'ArialMT'" font-size="12">a</tspan><tspan x="112.539" y="0" font-family="'ArialMT'" font-size="12">r</tspan><tspan x="116.415" y="0" font-family="'ArialMT'" font-size="12">ameter</tspan></text>
<text transform="matrix(-6.123234e-017 -1 1 -6.123234e-017 19.4199 320.5098)"><tspan x="0" y="0" font-family="'ArialMT'" font-size="12" letter-spacing="-1">T</tspan><tspan x="5.902" y="0" font-family="'ArialMT'" font-size="12">est Error</tspan></text>
</svg>
